<?xml version="1.0" encoding="utf-8"?>
<!-- Generator: Adobe Illustrator 26.0.2, SVG Export Plug-In . SVG Version: 6.00 Build 0)  -->
<svg version="1.1" id="Capa_1" xmlns="http://www.w3.org/2000/svg" xmlns:xlink="http://www.w3.org/1999/xlink" x="0px" y="0px"
	 viewBox="0 0 553.2 118.8" style="enable-background:new 0 0 553.2 118.8;" xml:space="preserve">
<style type="text/css">
	.st0{fill:#07739C;}
	.st1{fill:#FFFFFF;}
	.st2{fill:none;stroke:#FFFFFF;stroke-width:5;stroke-linecap:square;stroke-miterlimit:10;}
	.st3{fill:#FCFCFC;}
	.st4{fill:#F7F7F7;}
	.st5{fill:#F4B498;}
	.st6{fill:#212121;}
	.st7{fill:none;stroke:#212121;stroke-width:5;stroke-linecap:square;stroke-miterlimit:10;}
	.st8{fill:none;stroke:#000000;stroke-width:5;stroke-linecap:square;stroke-miterlimit:10;}
</style>
<g>
	<g>
		<path class="st1" d="M165.5,7.9h3l24,59.8c1,2.5,2.9,3.7,5.9,3.7h2.1v3.4h-26.7v-3.4h2.1c2.8,0,4.7-0.3,5.9-0.9
			c0.8-0.4,1.2-1.1,1.2-1.9c0-0.5-0.1-1.1-0.3-1.6l-5.5-14.2h-26.5l-3.1,8.1c-0.8,2.2-1.2,3.9-1.2,5.2c0,1.5,0.7,2.7,2.1,3.8
			c1.4,1.1,3.4,1.6,6,1.6h2.3v3.4h-24.3v-3.4c2.6,0,4.6-0.6,6.2-1.7c1.5-1.1,2.9-3.3,4.2-6.4L165.5,7.9z M164.2,19.4l-12,29.8h23.6
			L164.2,19.4z"/>
		<path class="st1" d="M199,7.9h54.4l1.3,3.4c0,0-10.6,0-19.3,0c-1.8,0-3,0.3-3.6,0.9c-0.7,0.6-1,1.6-1,3v53.1c0,1.1,0.3,1.9,1,2.4
			c0.6,0.5,1.7,0.8,3.1,0.8h6.7v3.4h-31.1v-3.4h7.7c1,0,1.8-0.3,2.4-0.8c0.5-0.5,0.8-1.2,0.8-2V14.8c0-1.1-0.3-2-1-2.6
			c-0.7-0.6-1.8-0.9-3.3-0.9c-4.4,0-19.5,0-19.5,0L199,7.9z"/>
		<path class="st1" d="M261.1,7.9h28.6v3.4h-5.3c-1.8,0-3,0.3-3.6,1c-0.6,0.6-0.8,2.2-0.8,4.7v20.6h30.6V17c0-2.6-0.3-4.2-0.8-4.8
			c-0.5-0.6-1.8-0.9-3.7-0.9h-4.9V7.9h28.4v3.4h-5.2c-1.3,0-2.2,0.2-2.7,0.5c-0.5,0.3-1,0.9-1.3,1.7c-0.2,0.5-0.3,1.9-0.3,4v48.2
			c0,2.3,0.2,3.7,0.6,4.2c0.8,1,2.2,1.5,4.3,1.5h4.6v3.4h-28.4v-3.4h4.9c1.9,0,3.2-0.5,3.9-1.6c0.4-0.6,0.6-2.1,0.6-4.5V42H280v23.6
			c0,2.4,0.2,3.8,0.5,4.3c0.8,1,2.1,1.5,3.9,1.5h5.3v3.4h-28.6v-3.4h5.5c1,0,1.7-0.2,2.3-0.6c0.6-0.4,1-1,1.3-1.7
			c0.2-0.5,0.2-1.8,0.2-3.8V17c0-2.5-0.3-4.1-0.8-4.7c-0.6-0.6-1.8-1-3.6-1h-4.8V7.9z"/>
		<path class="st1" d="M340.1,7.9h53l1.3,3.4c0,0-14.8,0-18.9,0h-13.1c-1.1,0-1.9,0.3-2.4,0.9c-0.5,0.6-0.8,1.4-0.8,2.6v22.8h17
			l2.4,4.5l-19.4,0v26.4c0,1,0.3,1.7,1,2.2c0.6,0.5,1.7,0.8,3.2,0.8h10.4c11.2,0,22.7,0,22.7,0l-1.1,3.4h-55.2v-3.4h4.6
			c1.8,0,3-0.3,3.8-0.9c0.7-0.6,1.1-1.5,1.1-2.7v-53c0-1.2-0.3-2.1-1-2.6c-0.6-0.6-1.6-0.9-3-0.9h-5.5V7.9z"/>
		<path class="st1" d="M404.7,7.9h16l40.4,52.6V22.4c0-3.8-0.9-6.7-2.6-8.5c-1.6-1.7-4-2.6-7.2-2.6V7.9h23.4v3.4
			c-2.4,0-4.2,0.3-5.4,1c-1.2,0.7-2.2,1.9-3.1,3.6c-0.9,1.8-1.3,3.7-1.3,5.7v53.2h-4.3L419,20.1v40.4c0,3.7,0.9,6.4,2.8,8.2
			c1.8,1.8,4.7,2.7,8.6,2.8v3.4h-25.5v-3.4c3.2-0.1,5.7-1.2,7.6-3.1c1.9-2,2.8-4.4,2.8-7.3V15.7l-0.8-0.9c-1.5-1.6-2.6-2.6-3.2-2.9
			c-0.9-0.4-2-0.6-3.4-0.6h-3V7.9z"/>
		<path class="st1" d="M508.9,7.9h3l24,59.8c1,2.5,2.9,3.7,5.9,3.7h2.1v3.4h-26.7v-3.4h2.1c2.8,0,4.7-0.3,5.9-0.9
			c0.8-0.4,1.2-1.1,1.2-1.9c0-0.5-0.1-1.1-0.3-1.6l-5.5-14.2h-26.5l-3.1,8.1c-0.8,2.2-1.2,3.9-1.2,5.2c0,1.5,0.7,2.7,2.1,3.8
			c1.4,1.1,3.4,1.6,6,1.6h2.3v3.4h-24.3v-3.4c2.6,0,4.6-0.6,6.2-1.7c1.5-1.1,2.9-3.3,4.2-6.4L508.9,7.9z M507.6,19.4l-12,29.8h23.6
			L507.6,19.4z"/>
	</g>
	<g>
		<g>
			<g>
				<path class="st1" d="M283.5,108.8V92.5h1.6v8.2l-0.2,2.3l0.2,2.3v3.5H283.5z M289.5,108.9c-1,0-1.9-0.2-2.7-0.7
					c-0.8-0.5-1.4-1.1-1.9-2c-0.5-0.9-0.7-1.9-0.7-3.2c0-1.3,0.2-2.3,0.7-3.2c0.5-0.9,1.1-1.5,1.9-2c0.8-0.5,1.7-0.7,2.7-0.7
					c1.1,0,2.1,0.2,3,0.7c0.9,0.5,1.6,1.2,2.1,2.1c0.5,0.9,0.7,1.9,0.7,3.1c0,1.2-0.2,2.2-0.7,3.1c-0.5,0.9-1.2,1.6-2.1,2.1
					C291.6,108.7,290.6,108.9,289.5,108.9z M289.4,107.6c0.8,0,1.6-0.2,2.2-0.6c0.6-0.4,1.2-0.9,1.5-1.6c0.4-0.7,0.6-1.5,0.6-2.4
					c0-0.9-0.2-1.7-0.6-2.4c-0.4-0.7-0.9-1.2-1.5-1.6c-0.6-0.4-1.4-0.6-2.2-0.6s-1.6,0.2-2.2,0.6c-0.7,0.4-1.2,0.9-1.5,1.6
					c-0.4,0.7-0.6,1.5-0.6,2.4c0,0.9,0.2,1.7,0.6,2.4c0.4,0.7,0.9,1.2,1.5,1.6C287.8,107.4,288.6,107.6,289.4,107.6z"/>
				<path class="st1" d="M303.2,108.9c-1.1,0-2.1-0.3-3-0.8c-0.9-0.5-1.6-1.2-2.1-2.1c-0.5-0.9-0.8-1.9-0.8-3c0-1.2,0.3-2.2,0.8-3.1
					c0.5-0.9,1.2-1.6,2.1-2.1c0.9-0.5,1.9-0.7,3-0.7c1.1,0,2.2,0.3,3,0.8c0.9,0.5,1.6,1.2,2.1,2.1s0.8,1.9,0.8,3
					c0,1.1-0.3,2.2-0.8,3s-1.2,1.6-2.1,2.1C305.3,108.7,304.3,108.9,303.2,108.9z M303.2,107.6c0.8,0,1.6-0.2,2.2-0.6
					c0.6-0.4,1.2-0.9,1.5-1.6c0.4-0.7,0.6-1.5,0.6-2.4c0-0.9-0.2-1.7-0.6-2.4c-0.4-0.7-0.9-1.2-1.5-1.6c-0.6-0.4-1.4-0.6-2.2-0.6
					c-0.8,0-1.6,0.2-2.2,0.6s-1.2,0.9-1.5,1.6s-0.6,1.5-0.6,2.4c0,0.9,0.2,1.7,0.6,2.4c0.4,0.7,0.9,1.2,1.5,1.6
					S302.3,107.6,303.2,107.6z"/>
				<path class="st1" d="M317,108.9c-1.1,0-2.1-0.3-3-0.8c-0.9-0.5-1.6-1.2-2.1-2.1c-0.5-0.9-0.8-1.9-0.8-3c0-1.2,0.3-2.2,0.8-3.1
					c0.5-0.9,1.2-1.6,2.1-2.1c0.9-0.5,1.9-0.7,3-0.7c1.1,0,2.2,0.3,3,0.8c0.9,0.5,1.6,1.2,2.1,2.1s0.8,1.9,0.8,3
					c0,1.1-0.3,2.2-0.8,3s-1.2,1.6-2.1,2.1C319.1,108.7,318.1,108.9,317,108.9z M317,107.6c0.8,0,1.6-0.2,2.2-0.6
					c0.6-0.4,1.2-0.9,1.5-1.6c0.4-0.7,0.6-1.5,0.6-2.4c0-0.9-0.2-1.7-0.6-2.4c-0.4-0.7-0.9-1.2-1.5-1.6c-0.6-0.4-1.4-0.6-2.2-0.6
					c-0.8,0-1.6,0.2-2.2,0.6s-1.2,0.9-1.5,1.6s-0.6,1.5-0.6,2.4c0,0.9,0.2,1.7,0.6,2.4c0.4,0.7,0.9,1.2,1.5,1.6
					S316.1,107.6,317,107.6z"/>
				<path class="st1" d="M326,108.8V92.5h1.6v16.3H326z M327.3,105.8l0-2l7.2-6.6h1.9l-5.1,4.9l-0.9,0.7L327.3,105.8z M335,108.8
					l-4.8-6l1-1.2l5.7,7.2H335z"/>
				<path class="st1" d="M348.1,108.9c-1,0-1.9-0.1-2.7-0.4s-1.5-0.6-2-1l0.7-1.2c0.5,0.4,1.1,0.7,1.8,0.9c0.7,0.3,1.5,0.4,2.3,0.4
					c1.1,0,1.9-0.2,2.4-0.5c0.5-0.3,0.7-0.8,0.7-1.4c0-0.4-0.1-0.8-0.4-1s-0.6-0.4-1.1-0.5c-0.4-0.1-0.9-0.2-1.5-0.3
					c-0.5-0.1-1.1-0.2-1.6-0.3c-0.5-0.1-1-0.3-1.5-0.5c-0.4-0.2-0.8-0.5-1.1-0.9s-0.4-0.9-0.4-1.6c0-0.6,0.2-1.2,0.5-1.7
					s0.9-0.9,1.6-1.2c0.7-0.3,1.5-0.4,2.5-0.4c0.7,0,1.5,0.1,2.2,0.3c0.7,0.2,1.4,0.5,1.8,0.8l-0.7,1.3c-0.5-0.4-1.1-0.6-1.7-0.8
					c-0.6-0.2-1.2-0.2-1.8-0.2c-1,0-1.8,0.2-2.3,0.5s-0.7,0.8-0.7,1.4c0,0.4,0.1,0.8,0.4,1c0.3,0.2,0.6,0.4,1.1,0.6
					c0.4,0.1,0.9,0.3,1.5,0.3s1.1,0.2,1.6,0.3c0.5,0.1,1,0.3,1.5,0.5c0.4,0.2,0.8,0.5,1.1,0.9s0.4,0.9,0.4,1.5
					c0,0.7-0.2,1.3-0.6,1.8c-0.4,0.5-0.9,0.9-1.6,1.1C350,108.8,349.1,108.9,348.1,108.9z"/>
				<path class="st1" d="M354,98.6v-1.3h7.2v1.3H354z M359.4,108.9c-1.1,0-1.9-0.3-2.5-0.9c-0.6-0.6-0.9-1.4-0.9-2.5V94.7h1.6v10.8
					c0,0.7,0.2,1.2,0.5,1.6c0.3,0.4,0.8,0.5,1.5,0.5c0.7,0,1.3-0.2,1.7-0.6l0.6,1.1c-0.3,0.3-0.7,0.5-1.1,0.6
					C360.3,108.9,359.9,108.9,359.4,108.9z"/>
				<path class="st1" d="M369.4,108.9c-1.1,0-2.1-0.3-3-0.8c-0.9-0.5-1.6-1.2-2.1-2.1c-0.5-0.9-0.8-1.9-0.8-3c0-1.2,0.3-2.2,0.8-3.1
					c0.5-0.9,1.2-1.6,2.1-2.1c0.9-0.5,1.9-0.7,3-0.7c1.1,0,2.2,0.3,3,0.8c0.9,0.5,1.6,1.2,2.1,2.1s0.8,1.9,0.8,3
					c0,1.1-0.3,2.2-0.8,3s-1.2,1.6-2.1,2.1C371.6,108.7,370.5,108.9,369.4,108.9z M369.4,107.6c0.8,0,1.6-0.2,2.2-0.6
					c0.6-0.4,1.2-0.9,1.5-1.6c0.4-0.7,0.6-1.5,0.6-2.4c0-0.9-0.2-1.7-0.6-2.4c-0.4-0.7-0.9-1.2-1.5-1.6c-0.6-0.4-1.4-0.6-2.2-0.6
					c-0.8,0-1.6,0.2-2.2,0.6s-1.2,0.9-1.5,1.6s-0.6,1.5-0.6,2.4c0,0.9,0.2,1.7,0.6,2.4c0.4,0.7,0.9,1.2,1.5,1.6
					S368.6,107.6,369.4,107.6z"/>
				<path class="st1" d="M378.5,108.8V97.3h1.5v3.1l-0.2-0.5c0.3-0.9,0.9-1.6,1.6-2c0.8-0.5,1.7-0.7,2.8-0.7v1.5c-0.1,0-0.1,0-0.2,0
					c-0.1,0-0.1,0-0.2,0c-1.2,0-2.2,0.4-2.9,1.1c-0.7,0.7-1,1.8-1,3.2v5.9H378.5z"/>
				<path class="st1" d="M392.2,108.9c-1.2,0-2.3-0.3-3.2-0.8c-0.9-0.5-1.6-1.2-2.1-2.1c-0.5-0.9-0.8-1.9-0.8-3s0.2-2.2,0.7-3
					s1.2-1.6,2-2.1c0.9-0.5,1.8-0.8,2.9-0.8c1.1,0,2.1,0.2,2.9,0.7c0.8,0.5,1.5,1.2,2,2.1c0.5,0.9,0.7,1.9,0.7,3.1
					c0,0.1,0,0.2,0,0.2c0,0.1,0,0.2,0,0.3h-10.1v-1.2h9.2l-0.6,0.5c0-0.8-0.2-1.6-0.5-2.2c-0.4-0.7-0.8-1.2-1.5-1.5
					c-0.6-0.4-1.3-0.5-2.1-0.5c-0.8,0-1.5,0.2-2.1,0.5c-0.6,0.4-1.1,0.9-1.5,1.5c-0.4,0.7-0.5,1.4-0.5,2.3v0.2
					c0,0.9,0.2,1.7,0.6,2.3c0.4,0.7,0.9,1.2,1.6,1.6s1.5,0.6,2.4,0.6c0.7,0,1.4-0.1,2-0.4s1.1-0.6,1.6-1.1l0.9,1
					c-0.5,0.6-1.2,1.1-1.9,1.4C394,108.8,393.2,108.9,392.2,108.9z"/>
			</g>
		</g>
		<line class="st2" x1="134.1" y1="102.3" x2="268" y2="102.3"/>
		<line class="st2" x1="408.4" y1="102.3" x2="542.3" y2="102.3"/>
	</g>
	<g>
		<g>
			<path class="st1" d="M21.7,59.5c0,0,4.7-4.9,5.7-5.6c0,0,3-2.8,4.8-3.9l2.9-2l0.1,4.3c0,0,0.3,1.2-1.7,2c-1.9,1.1-9.7,6-10.8,6.5
				c-1.1,0.5-1.6,0.9-1.6,0.9S21.4,60,21.7,59.5z"/>
			<path class="st1" d="M17.9,70c0,0,0.2-4.8,5.6-8.2l9-5.8l0.5,0.1c0,0-0.5,1.6-1.5,2.8c0,0-0.3,0.7-0.2,1.5
				c0.1,0.8-1.2,2.8-3.1,3.6C26.4,64.8,18.3,69.8,17.9,70z"/>
			<path class="st1" d="M30.2,64.1l4.3,4.5l-18.9,9.3c0,0-1.6-3.2,2.5-6.2S30.2,64.1,30.2,64.1z"/>
			<path class="st1" d="M15.9,78.8c0,0-3.4,1.4-3.4,4.2c0,0,0.8,0,1.1-0.1c0.3,0,18.7-5.8,18.7-5.8s21.2-6.6,24.6-7.5
				c3.4-0.9,10.1-3.5,10.8-3.9c0.7-0.4,3.1-1.2,4.8-3l2.2-2v-1c0,0,0.9-0.4-2.7-1c0,0-1.8-0.5-4.2-1.2c-2.4-0.7-2.7,1.9-2.7,1.9
				s-1.5,0.3-1.6,0c-0.1-0.2,0-0.4-1-1c-1-0.6-0.2-1.9,0.5-2.4c0.7-0.4,0.3-1.6,0-1.9s0.2-1.2,0.8-1.4c0.6-0.2,2.6-0.6,3.8,0
				c1.1,0.6,1.9-0.8,1.9-0.8s1.1-1,3.8-1.7l0.7,0.1l-1.2,1.5l3.8,5.9c0,0,1.5-3.7,0.4-6.3c0,0-1.2-3.1-4-4.5
				c-2.8-1.4-16.6-6.9-18.8-7.1c0,0-2.8-1.2-5.9,0.1C45.2,41,40,44.4,40,44.4s-3.3,2-3.7,5.5c0,0-0.2,1.4,0.2,2.5
				c0,0,0.1,0.7-1.6,3.2c0,0-5.5,7,0.1,10.3c0,0,1.1,0.6,2.3,0.6c0,0,1.1,0.4,1.4,0.5c0.2,0.1-1.9,1.8-10.8,6.2
				C24.6,74.7,20.8,76.5,15.9,78.8z"/>
			<path class="st3" d="M52.8,38.3c0,0,1.5-2,4-2.4l2.7-0.6c0,0,0.1-0.4,1.6,1.2c0,0,4.2,5.4,13.1,4.5c0,0,0.2-0.1,0.5,0.1L74.2,43
				l-6-0.1c0,0-0.6,0.1-2.1-1s-3.3-1.8-4.2-3.3s-1.8-1.8-1.8-1.8s-0.7-0.8-3.3,0.2C54.2,38.2,53.8,38.4,52.8,38.3z"/>
			<polygon class="st3" points="19,83.4 19.3,84.2 26.9,81.2 26.5,80.4 			"/>
			<path class="st3" d="M16,86.7c0,0-6.8,3.4-6.5,10.4l7.8-7.2c0,0,2.7-2.1,10.4-7c0,0-0.8-1.1-2.9,0C22.9,83.6,22.5,83.1,16,86.7z"
				/>
			<path class="st3" d="M14.9,92.9c0,0-7.2,5.1-5.3,8.5l21-16c0,0,0.2-0.1-0.8-0.4c0,0-1.1-0.5-1.3-0.6c0,0-0.7-0.2-0.9,0.1
				C27.5,84.5,16.6,90.7,14.9,92.9z"/>
			<path class="st3" d="M78.7,42.7l-3.1,4.2c0,0,4.8,5.4,2.3,10.7c-2.5,5.4-3.3,8.6-24.6,13.9c0,0-25.3,7.8-25.8,8.5
				c0,0,0.8,2.3,1.4,3c0,0,1.3,2.5,4.2,1.2c0,0,0.8-0.5,4.9-0.9c0,0,3.5,0.2,4.4-2.9c1-3.2,6-6.6,10.7-7.7s8.4-0.9,10,1.8
				c1.7,2.7,1,4.5,1,4.5s11.3-0.9,19.7-11.5s7.6-19.1,7.6-19.1S82.3,46.7,78.7,42.7z"/>
			<path class="st3" d="M47.7,101.1c0,0,2.2,0.3,3.4,0.2c0,0,0.8-0.1,1.8-0.6c0,0,1.9-1.1,4.9,0.3l2,0.9l-2.1,2.8
				c0,0-1.1,1.3-2.1,1.3c0,0-3.7-0.1-4.8-0.3s-6.3-0.4-13.4,0c0,0-2.5,0.7-3.8-1l-1.2-2l0.2-0.6l2.4,0.2c0,0,2.6,0.1,4.1,0.7
				c1.5,0.6,3.3-1.2,3.3-2.4c0-1.2,1.9-8.3,0.1-11.5c-1.7-3.2-1.7-4.2,0.8-8.1s7.6-8,14.5-7.9c6.9,0.1,5.9,6.7,3.3,8
				c0,0-1,1-4.6,2.2c-3.6,1.2-4.7,4.6-4.8,5.4c-0.1,0.8-1,2.4-3.9,3.4c0,0-1.2,0.6-1.1,3.3C46.8,98,46.2,100.7,47.7,101.1z"/>
			<path class="st3" d="M63.3,80.5l12.9-4.6c0,0,0.3,3-3.3,5c-3.6,1.9-4.7,2.5-6,3.1c0,0-1.7,0.7-2.2,3.4c0,0-1.1,2.6-3.1,3.5
				s-1.5,3.2-1.4,3.6c0,0.3,0,4.8,1.3,5.2c0,0,1.6,1.6,4.7-0.6c0,0,1.4-0.9,5.6,0l1,0.4l0.2,1.7c0,0-0.6,0.6-0.8,0.6s-1.6,3.9-6.5,3
				l-4-0.6c0,0-1.1,0-0.5-1.7c0,0,0.2-1.6-1.8-2.2c-2-0.6-3.2-1-3.2-1l0.7-8.4c0,0,0.3-1.7-1.8-3c0,0-2.1-1.5,1-3.3
				c0,0,2.9-1.4,3.9-1.6C61.1,82.7,63,81.3,63.3,80.5z"/>
			<path class="st3" d="M79.8,15.5c0,0,3.3-0.4,5.2,3.1l-1.6,0.7c0,0,1.9,1.4-0.1,2.9L79.8,15.5z"/>
			<path class="st3" d="M85.3,20.9l2.7-1.5C88,19.4,88.4,22.9,85.3,20.9z"/>
			<path class="st3" d="M88.6,18.6l1.4-1.3c0,0,1.2,1.2,1.3,1.4c0.1,0.2-1.2,1.4-1.2,1.4L88.6,18.6z"/>
			<path class="st3" d="M79.2,33.6c0,0-1.8,0.7-2.7,2.8s-0.8,7.2-0.7,7.4c0.1,0.2,4.6-2.9,5.6-6.7S79.2,33.6,79.2,33.6z"/>
			<path class="st3" d="M71,37.3c0,0,3.5,0.3,4.1,0.3c0,0,0.2,2.3-2.1,2c0,0-1.9,0-2.8,0c0,0-2.8,0.5-5.9-3c0,0-1.7-1.9-2-2.3
				c-0.3-0.4-0.6-0.8-0.6-0.8l0.1-0.6c0,0,0.3,0.6,1.3,1.4C64.3,35.4,66.5,36.8,71,37.3z"/>
		</g>
		<path class="st3" d="M61.8,32.7c0,0-2.5-0.1-3.6-3.5c0,0-4.9-15.4,16.5-20.2c0,0,20.3-4.3,29.7,17.8c0,0,6.4,13.3-9.9,20.4
			c0,0-7.7,1.9-14.5-5c0,0-0.5-0.8,1.7-2.7c0,0,3.3,5.8,10.8,5.7c0,0,12.7-1.2,10.9-14.4c0,0,0.5-5.7-10-9.9l4.6-2.2l-3.2-1.7
			l-1.2-2.2l-7.5-3.9c0,0-1.6-1.1-3.5,0.8c0,0-2.4,0.3-3.8,2.4c0,0-0.2,1-5.3-0.4c-5.1-1.3-11.3,3.5-12.2,6.4
			C61.2,20,57.2,25.8,61.8,32.7z"/>
		<path class="st1" d="M101.6,28.5c-6-10.1-16.2-5.1-16.2-5.1c-0.8,0.9-3.2,2.2-3.2,2.2l-1-1.2c-1.8-1.8-2,0.8-2,0.8
			c-1.2,7.8-6.5,7.5-6.5,7.5c-7.4,0.5-8.5-7-8.5-7c0.1-6.1,5.3-7.6,7.3-7.6c1.9,0,2.4-0.7,2.4-0.7c0.2-2,1.4-1.4,1.4-1.4
			c5.5,2.3,4.9,3.5,4.9,3.5c0.3,2.7,1.7,2.5,1.7,2.5c-1.3-8.1-9.3-7.4-9.3-7.4C62.2,15,59.9,23.5,61,28s2.5,2.1,2.5,2.1
			c-0.3,3.5,3,4.9,3,4.9c8.8,2.8,8.8,0.4,8.8,0.4c2.8-4.3,5.2-3,5.2-3c3,1.4,2.3,3.5,2.3,3.5c-1.1,2.1-0.4,3.2-0.4,3.2
			c5,6.2,9.1,5,9.1,5C106.5,41.9,101.6,28.5,101.6,28.5z M97.2,37.3c-1.3,1.3-7.2,6.1-12.4-0.4c0,0-2-3.4-0.9-5.7
			c0,0,2.7-7.7,9.9-5.4S98.5,36.1,97.2,37.3z"/>
	</g>
</g>
</svg>
